<?xml version="1.0" encoding="utf-8" standalone="no"?>
<!DOCTYPE svg PUBLIC "-//W3C//DTD SVG 1.1//EN"
  "http://www.w3.org/Graphics/SVG/1.1/DTD/svg11.dtd">
<svg height="432pt" version="1.1" viewBox="0 0 360 432" width="360pt" xmlns="http://www.w3.org/2000/svg" xmlns:xlink="http://www.w3.org/1999/xlink">
 <metadata>
  <rdf:RDF xmlns:cc="http://creativecommons.org/ns#" xmlns:dc="http://purl.org/dc/elements/1.1/" xmlns:rdf="http://www.w3.org/1999/02/22-rdf-syntax-ns#">
   <cc:Work>
    <dc:type rdf:resource="http://purl.org/dc/dcmitype/StillImage"/>
    <dc:date>2025-04-04T18:29:55.619011</dc:date>
    <dc:format>image/svg+xml</dc:format>
    <dc:creator>
     <cc:Agent>
      <dc:title>Matplotlib v3.4.3, https://matplotlib.org/</dc:title>
     </cc:Agent>
    </dc:creator>
   </cc:Work>
  </rdf:RDF>
 </metadata>
 <defs>
  <style type="text/css">*{stroke-linecap:butt;stroke-linejoin:round;}</style>
 </defs>
 <g id="figure_1">
  <g id="patch_1">
   <path d="M 0 432 
L 360 432 
L 360 0 
L 0 0 
z
" style="fill:#ffffff;"/>
  </g>
  <g id="axes_1">
   <g id="patch_2">
    <path d="M 53.488804 387.672292 
L 341.264369 387.672292 
L 341.264369 11.88 
L 53.488804 11.88 
z
" style="fill:#ffffff;"/>
   </g>
   <g id="matplotlib.axis_1">
    <g id="xtick_1">
     <g id="line2d_1">
      <path clip-path="url(#pcf17db0bba)" d="M 53.488804 387.672292 
L 53.488804 11.88 
" style="fill:none;stroke:#b0b0b0;stroke-linecap:square;stroke-opacity:0.7;stroke-width:0.8;"/>
     </g>
     <g id="line2d_2">
      <defs>
       <path d="M 0 0 
L 0 3.5 
" id="m7aa51c19c5" style="stroke:#000000;stroke-width:0.8;"/>
      </defs>
      <g>
       <use style="stroke:#000000;stroke-width:0.8;" x="53.488804" xlink:href="#m7aa51c19c5" y="387.672292"/>
      </g>
     </g>
     <g id="text_1">
      <!-- $\mathdefault{−2.0}$ -->
      <g transform="translate(42.371368 402.328897)scale(0.11 -0.11)">
       <defs>
        <path d="M 4442 1600 
C 4442 1728 4320 1728 4230 1728 
L 742 1728 
C 653 1728 531 1728 531 1600 
C 531 1472 653 1472 742 1472 
L 4230 1472 
C 4320 1472 4442 1472 4442 1600 
z
" id="LMMathSymbols10-Regular-0" transform="scale(0.015625)"/>
        <path d="M 2669 990 
L 2554 990 
C 2490 537 2438 460 2413 422 
C 2381 371 1920 371 1830 371 
L 602 371 
L 1824 1596 
C 2214 1966 2669 2400 2669 3033 
C 2669 3788 2067 4224 1395 4224 
C 691 4224 262 3603 262 3027 
C 262 2777 448 2745 525 2745 
C 589 2745 781 2783 781 3007 
C 781 3206 614 3264 525 3264 
C 486 3264 448 3257 422 3244 
C 544 3788 915 4057 1306 4057 
C 1862 4057 2227 3616 2227 3033 
C 2227 2477 1901 1998 1536 1583 
L 262 147 
L 262 0 
L 2515 0 
L 2669 990 
z
" id="LMRoman17-Regular-32" transform="scale(0.015625)"/>
        <path d="M 1178 307 
C 1178 492 1024 620 870 620 
C 685 620 557 467 557 313 
C 557 128 710 0 864 0 
C 1050 0 1178 153 1178 307 
z
" id="LMMathItalic12-Regular-3a" transform="scale(0.015625)"/>
        <path d="M 2688 2038 
C 2688 2430 2682 3099 2413 3613 
C 2176 4063 1798 4224 1466 4224 
C 1158 4224 768 4082 525 3620 
C 269 3137 243 2539 243 2038 
C 243 1671 250 1112 448 623 
C 723 -39 1216 -128 1466 -128 
C 1760 -128 2208 -7 2470 604 
C 2662 1048 2688 1568 2688 2038 
z
M 2278 2109 
C 2278 1691 2278 1176 2202 797 
C 2067 96 1690 -26 1466 -26 
C 1056 -26 813 328 723 816 
C 653 1196 653 1749 653 2109 
C 653 2604 653 3015 736 3407 
C 858 3954 1216 4121 1466 4121 
C 1728 4121 2067 3947 2189 3420 
C 2272 3054 2278 2623 2278 2109 
z
" id="LMRoman17-Regular-30" transform="scale(0.015625)"/>
       </defs>
       <use transform="scale(0.996264)" xlink:href="#LMMathSymbols10-Regular-0"/>
       <use transform="translate(77.487468 0)scale(0.996264)" xlink:href="#LMRoman17-Regular-32"/>
       <use transform="translate(123.178416 0)scale(0.996264)" xlink:href="#LMMathItalic12-Regular-3a"/>
       <use transform="translate(150.275593 0)scale(0.996264)" xlink:href="#LMRoman17-Regular-30"/>
      </g>
     </g>
    </g>
    <g id="xtick_2">
     <g id="line2d_3">
      <path clip-path="url(#pcf17db0bba)" d="M 89.46075 387.672292 
L 89.46075 11.88 
" style="fill:none;stroke:#b0b0b0;stroke-linecap:square;stroke-opacity:0.7;stroke-width:0.8;"/>
     </g>
     <g id="line2d_4">
      <g>
       <use style="stroke:#000000;stroke-width:0.8;" x="89.46075" xlink:href="#m7aa51c19c5" y="387.672292"/>
      </g>
     </g>
     <g id="text_2">
      <!-- $\mathdefault{−1.5}$ -->
      <g transform="translate(78.343314 402.328897)scale(0.11 -0.11)">
       <defs>
        <path d="M 2458 0 
L 2458 166 
L 2266 166 
C 1715 166 1702 236 1702 467 
L 1702 4085 
C 1702 4217 1696 4224 1606 4224 
C 1357 3927 979 3833 621 3820 
C 602 3820 570 3820 563 3808 
C 557 3795 557 3782 557 3648 
C 755 3648 1088 3686 1344 3839 
L 1344 467 
C 1344 243 1331 166 781 166 
L 589 166 
L 589 0 
L 1523 12 
L 2458 0 
z
" id="LMRoman17-Regular-31" transform="scale(0.015625)"/>
        <path d="M 2669 1260 
C 2669 2028 2170 2624 1549 2624 
C 1222 2624 947 2502 730 2271 
L 730 3692 
C 794 3667 1056 3584 1325 3584 
C 1920 3584 2246 3904 2432 4119 
C 2432 4183 2432 4224 2394 4224 
C 2394 4224 2374 4224 2323 4191 
C 2099 4071 1837 3974 1517 3974 
C 1325 3993 1037 4019 723 4160 
C 653 4224 634 4224 634 4224 
C 602 4192 595 4185 595 4057 
L 595 2206 
C 595 2092 595 2061 659 2061 
C 691 2061 704 2074 736 2118 
C 941 2401 1222 2521 1542 2521 
C 1766 2521 2246 2382 2246 1304 
C 2246 1103 2246 735 2054 441 
C 1894 166 1645 25 1370 25 
C 947 25 518 334 403 832 
C 429 806 480 793 506 793 
C 589 793 749 838 749 1036 
C 749 1209 627 1280 506 1280 
C 358 1280 262 1190 262 1011 
C 262 454 704 -128 1382 -128 
C 2042 -128 2669 441 2669 1267 
L 2669 1260 
z
" id="LMRoman17-Regular-35" transform="scale(0.015625)"/>
       </defs>
       <use transform="scale(0.996264)" xlink:href="#LMMathSymbols10-Regular-0"/>
       <use transform="translate(77.487468 0)scale(0.996264)" xlink:href="#LMRoman17-Regular-31"/>
       <use transform="translate(123.178416 0)scale(0.996264)" xlink:href="#LMMathItalic12-Regular-3a"/>
       <use transform="translate(150.275593 0)scale(0.996264)" xlink:href="#LMRoman17-Regular-35"/>
      </g>
     </g>
    </g>
    <g id="xtick_3">
     <g id="line2d_5">
      <path clip-path="url(#pcf17db0bba)" d="M 125.432695 387.672292 
L 125.432695 11.88 
" style="fill:none;stroke:#b0b0b0;stroke-linecap:square;stroke-opacity:0.7;stroke-width:0.8;"/>
     </g>
     <g id="line2d_6">
      <g>
       <use style="stroke:#000000;stroke-width:0.8;" x="125.432695" xlink:href="#m7aa51c19c5" y="387.672292"/>
      </g>
     </g>
     <g id="text_3">
      <!-- $\mathdefault{−1.0}$ -->
      <g transform="translate(114.315259 402.328897)scale(0.11 -0.11)">
       <use transform="scale(0.996264)" xlink:href="#LMMathSymbols10-Regular-0"/>
       <use transform="translate(77.487468 0)scale(0.996264)" xlink:href="#LMRoman17-Regular-31"/>
       <use transform="translate(123.178416 0)scale(0.996264)" xlink:href="#LMMathItalic12-Regular-3a"/>
       <use transform="translate(150.275593 0)scale(0.996264)" xlink:href="#LMRoman17-Regular-30"/>
      </g>
     </g>
    </g>
    <g id="xtick_4">
     <g id="line2d_7">
      <path clip-path="url(#pcf17db0bba)" d="M 161.404641 387.672292 
L 161.404641 11.88 
" style="fill:none;stroke:#b0b0b0;stroke-linecap:square;stroke-opacity:0.7;stroke-width:0.8;"/>
     </g>
     <g id="line2d_8">
      <g>
       <use style="stroke:#000000;stroke-width:0.8;" x="161.404641" xlink:href="#m7aa51c19c5" y="387.672292"/>
      </g>
     </g>
     <g id="text_4">
      <!-- $\mathdefault{−0.5}$ -->
      <g transform="translate(150.287205 402.328897)scale(0.11 -0.11)">
       <use transform="scale(0.996264)" xlink:href="#LMMathSymbols10-Regular-0"/>
       <use transform="translate(77.487468 0)scale(0.996264)" xlink:href="#LMRoman17-Regular-30"/>
       <use transform="translate(123.178416 0)scale(0.996264)" xlink:href="#LMMathItalic12-Regular-3a"/>
       <use transform="translate(150.275593 0)scale(0.996264)" xlink:href="#LMRoman17-Regular-35"/>
      </g>
     </g>
    </g>
    <g id="xtick_5">
     <g id="line2d_9">
      <path clip-path="url(#pcf17db0bba)" d="M 197.376586 387.672292 
L 197.376586 11.88 
" style="fill:none;stroke:#b0b0b0;stroke-linecap:square;stroke-opacity:0.7;stroke-width:0.8;"/>
     </g>
     <g id="line2d_10">
      <g>
       <use style="stroke:#000000;stroke-width:0.8;" x="197.376586" xlink:href="#m7aa51c19c5" y="387.672292"/>
      </g>
     </g>
     <g id="text_5">
      <!-- $\mathdefault{0.0}$ -->
      <g transform="translate(190.520955 402.328897)scale(0.11 -0.11)">
       <use transform="scale(0.996264)" xlink:href="#LMRoman17-Regular-30"/>
       <use transform="translate(45.690948 0)scale(0.996264)" xlink:href="#LMMathItalic12-Regular-3a"/>
       <use transform="translate(72.788125 0)scale(0.996264)" xlink:href="#LMRoman17-Regular-30"/>
      </g>
     </g>
    </g>
    <g id="xtick_6">
     <g id="line2d_11">
      <path clip-path="url(#pcf17db0bba)" d="M 233.348532 387.672292 
L 233.348532 11.88 
" style="fill:none;stroke:#b0b0b0;stroke-linecap:square;stroke-opacity:0.7;stroke-width:0.8;"/>
     </g>
     <g id="line2d_12">
      <g>
       <use style="stroke:#000000;stroke-width:0.8;" x="233.348532" xlink:href="#m7aa51c19c5" y="387.672292"/>
      </g>
     </g>
     <g id="text_6">
      <!-- $\mathdefault{0.5}$ -->
      <g transform="translate(226.4929 402.328897)scale(0.11 -0.11)">
       <use transform="scale(0.996264)" xlink:href="#LMRoman17-Regular-30"/>
       <use transform="translate(45.690948 0)scale(0.996264)" xlink:href="#LMMathItalic12-Regular-3a"/>
       <use transform="translate(72.788125 0)scale(0.996264)" xlink:href="#LMRoman17-Regular-35"/>
      </g>
     </g>
    </g>
    <g id="xtick_7">
     <g id="line2d_13">
      <path clip-path="url(#pcf17db0bba)" d="M 269.320477 387.672292 
L 269.320477 11.88 
" style="fill:none;stroke:#b0b0b0;stroke-linecap:square;stroke-opacity:0.7;stroke-width:0.8;"/>
     </g>
     <g id="line2d_14">
      <g>
       <use style="stroke:#000000;stroke-width:0.8;" x="269.320477" xlink:href="#m7aa51c19c5" y="387.672292"/>
      </g>
     </g>
     <g id="text_7">
      <!-- $\mathdefault{1.0}$ -->
      <g transform="translate(262.464846 402.328897)scale(0.11 -0.11)">
       <use transform="scale(0.996264)" xlink:href="#LMRoman17-Regular-31"/>
       <use transform="translate(45.690948 0)scale(0.996264)" xlink:href="#LMMathItalic12-Regular-3a"/>
       <use transform="translate(72.788125 0)scale(0.996264)" xlink:href="#LMRoman17-Regular-30"/>
      </g>
     </g>
    </g>
    <g id="xtick_8">
     <g id="line2d_15">
      <path clip-path="url(#pcf17db0bba)" d="M 305.292423 387.672292 
L 305.292423 11.88 
" style="fill:none;stroke:#b0b0b0;stroke-linecap:square;stroke-opacity:0.7;stroke-width:0.8;"/>
     </g>
     <g id="line2d_16">
      <g>
       <use style="stroke:#000000;stroke-width:0.8;" x="305.292423" xlink:href="#m7aa51c19c5" y="387.672292"/>
      </g>
     </g>
     <g id="text_8">
      <!-- $\mathdefault{1.5}$ -->
      <g transform="translate(298.436792 402.328897)scale(0.11 -0.11)">
       <use transform="scale(0.996264)" xlink:href="#LMRoman17-Regular-31"/>
       <use transform="translate(45.690948 0)scale(0.996264)" xlink:href="#LMMathItalic12-Regular-3a"/>
       <use transform="translate(72.788125 0)scale(0.996264)" xlink:href="#LMRoman17-Regular-35"/>
      </g>
     </g>
    </g>
    <g id="xtick_9">
     <g id="line2d_17">
      <path clip-path="url(#pcf17db0bba)" d="M 341.264369 387.672292 
L 341.264369 11.88 
" style="fill:none;stroke:#b0b0b0;stroke-linecap:square;stroke-opacity:0.7;stroke-width:0.8;"/>
     </g>
     <g id="line2d_18">
      <g>
       <use style="stroke:#000000;stroke-width:0.8;" x="341.264369" xlink:href="#m7aa51c19c5" y="387.672292"/>
      </g>
     </g>
     <g id="text_9">
      <!-- $\mathdefault{2.0}$ -->
      <g transform="translate(334.408737 402.328897)scale(0.11 -0.11)">
       <use transform="scale(0.996264)" xlink:href="#LMRoman17-Regular-32"/>
       <use transform="translate(45.690948 0)scale(0.996264)" xlink:href="#LMMathItalic12-Regular-3a"/>
       <use transform="translate(72.788125 0)scale(0.996264)" xlink:href="#LMRoman17-Regular-30"/>
      </g>
     </g>
    </g>
    <g id="text_10">
     <!-- $\delta k (\mu m^{-1})$ -->
     <g transform="translate(174.270075 417.380274)scale(0.11 -0.11)">
      <defs>
       <path d="M 2400 1163 
C 2458 1380 2490 1604 2490 1815 
C 2490 1910 2483 2006 2470 2102 
C 2419 2402 2285 2658 2112 2888 
C 1830 3246 1446 3744 1446 4045 
C 1446 4090 1459 4128 1478 4160 
C 1510 4224 1555 4275 1619 4307 
C 1683 4339 1754 4352 1818 4352 
C 2106 4345 2298 4153 2541 4058 
C 2560 4051 2579 4051 2605 4051 
C 2682 4051 2771 4096 2810 4179 
C 2829 4211 2842 4249 2842 4275 
C 2842 4352 2790 4416 2720 4428 
C 2496 4480 2246 4544 2016 4544 
C 1952 4544 1888 4537 1830 4524 
C 1741 4512 1645 4486 1562 4428 
C 1478 4377 1408 4300 1363 4217 
C 1312 4122 1286 4007 1286 3891 
C 1286 3546 1485 3144 1670 2786 
C 1408 2728 1152 2588 934 2396 
C 621 2121 403 1757 314 1386 
C 282 1252 262 1118 262 990 
C 262 760 320 543 435 364 
C 602 102 883 -64 1242 -64 
C 1798 -64 2246 543 2400 1163 
z
M 2010 1041 
C 1888 568 1651 57 1242 57 
C 986 57 794 210 704 428 
C 653 543 634 677 634 811 
C 634 990 666 1175 710 1361 
C 794 1693 922 2032 1178 2313 
C 1338 2479 1530 2613 1734 2664 
L 1754 2633 
C 1875 2396 1990 2153 2048 1885 
C 2067 1783 2074 1674 2074 1565 
C 2074 1393 2054 1214 2010 1041 
z
" id="LMMathItalic12-Regular-e" transform="scale(0.015625)"/>
       <path d="M 3072 918 
C 3072 950 3046 975 3008 975 
C 2950 975 2944 950 2918 847 
C 2829 513 2694 64 2368 64 
C 2240 64 2157 128 2157 372 
C 2157 494 2182 635 2208 731 
C 2234 847 2234 853 2234 930 
C 2234 1309 1894 1521 1306 1598 
C 1536 1739 1766 1990 1856 2086 
C 2221 2495 2470 2687 2765 2687 
C 2912 2687 2950 2655 2995 2624 
C 2758 2598 2669 2431 2669 2303 
C 2669 2150 2790 2099 2880 2099 
C 3053 2099 3206 2246 3206 2451 
C 3206 2634 3059 2816 2771 2816 
C 2419 2816 2131 2579 1677 2067 
C 1613 1990 1376 1746 1139 1656 
L 1798 4255 
C 1805 4281 1818 4319 1818 4351 
C 1818 4416 1741 4416 1741 4416 
L 1389 4383 
C 1280 4377 1184 4364 1069 4358 
C 915 4345 870 4339 870 4223 
C 870 4159 934 4159 998 4159 
C 1325 4159 1325 4103 1325 4040 
C 1325 4014 1325 4002 1293 3888 
L 378 250 
C 352 154 352 141 352 102 
C 352 -39 461 -64 525 -64 
C 704 -64 742 77 794 276 
C 851 513 826 423 1094 1476 
C 1555 1425 1830 1232 1830 924 
C 1830 886 1830 860 1811 764 
C 1786 667 1786 590 1786 558 
C 1786 186 2029 -64 2355 -64 
C 2650 -64 2803 205 2854 295 
C 2989 532 3072 892 3072 918 
z
" id="LMMathItalic12-Regular-6b" transform="scale(0.015625)"/>
       <path d="M 1958 -1562 
C 1958 -1562 1958 -1543 1939 -1524 
C 1645 -1223 858 -403 858 1596 
C 858 3595 1632 4409 1946 4729 
C 1946 4729 1958 4748 1958 4767 
C 1958 4787 1939 4800 1914 4800 
C 1843 4800 1299 4325 986 3621 
C 666 2910 576 2218 576 1603 
C 576 1141 621 360 1005 -467 
C 1312 -1133 1837 -1600 1914 -1600 
C 1946 -1600 1958 -1588 1958 -1562 
z
" id="LMRoman17-Regular-28" transform="scale(0.015625)"/>
       <path d="M 3584 913 
C 3584 945 3558 970 3520 970 
C 3462 970 3456 938 3430 842 
C 3334 466 3213 64 2950 64 
C 2765 64 2752 230 2752 357 
C 2752 504 2810 734 2854 925 
L 3034 1615 
L 3162 2139 
C 3200 2292 3270 2566 3270 2592 
C 3270 2688 3194 2752 3098 2752 
C 3040 2752 2906 2726 2854 2534 
L 2406 759 
C 2374 632 2374 619 2291 517 
C 2214 408 1965 64 1562 64 
C 1203 64 1088 325 1088 625 
C 1088 811 1146 1034 1171 1143 
L 1459 2292 
C 1491 2413 1542 2617 1542 2656 
C 1542 2758 1459 2816 1376 2816 
C 1318 2816 1178 2796 1126 2592 
L 198 -1133 
C 192 -1166 179 -1205 179 -1245 
C 179 -1343 256 -1408 352 -1408 
C 538 -1408 576 -1258 621 -1074 
C 691 -799 653 -930 922 140 
C 1082 -7 1318 -64 1536 -64 
C 1946 -64 2227 210 2374 408 
C 2438 70 2707 -64 2931 -64 
C 3123 -64 3277 51 3392 281 
C 3494 498 3584 887 3584 913 
z
" id="LMMathItalic12-Regular-16" transform="scale(0.015625)"/>
       <path d="M 5293 913 
C 5293 944 5267 970 5229 970 
C 5171 970 5165 951 5133 842 
C 4986 331 4749 63 4493 63 
C 4429 63 4326 70 4326 274 
C 4326 440 4403 644 4429 715 
C 4544 1021 4832 1775 4832 2145 
C 4832 2528 4608 2816 4122 2816 
C 3693 2816 3347 2573 3091 2196 
C 3072 2541 2861 2816 2381 2816 
C 1811 2816 1510 2413 1395 2254 
C 1376 2618 1114 2816 832 2816 
C 646 2816 499 2726 378 2483 
C 262 2254 173 1864 173 1838 
C 173 1813 198 1781 243 1781 
C 294 1781 301 1787 339 1934 
C 435 2311 557 2688 813 2688 
C 960 2688 1011 2586 1011 2394 
C 1011 2254 947 2004 902 1807 
L 723 1117 
L 595 593 
C 550 427 480 127 480 95 
C 480 6 550 -64 646 -64 
C 723 -64 813 -26 864 70 
C 877 102 934 325 966 453 
L 1107 1027 
L 1318 1870 
C 1331 1909 1491 2228 1728 2432 
C 1894 2586 2112 2688 2362 2688 
C 2618 2688 2707 2496 2707 2241 
C 2707 2202 2707 2075 2630 1775 
C 2547 1443 2547 1423 2470 1117 
L 2285 383 
C 2259 287 2221 121 2221 95 
C 2221 6 2291 -64 2387 -64 
C 2579 -64 2611 82 2669 312 
L 3053 1838 
C 3066 1890 3398 2688 4102 2688 
C 4358 2688 4448 2496 4448 2241 
C 4448 1883 4198 1187 4058 804 
C 4000 651 3968 568 3968 453 
C 3968 165 4166 -64 4474 -64 
C 5069 -64 5293 874 5293 913 
z
" id="LMMathItalic12-Regular-6d" transform="scale(0.015625)"/>
       <path d="M 1683 1596 
C 1683 2057 1638 2839 1254 3665 
C 947 4332 422 4800 346 4800 
C 326 4800 301 4793 301 4761 
C 301 4761 307 4742 314 4729 
C 621 4409 1402 3595 1402 1603 
C 1402 -396 627 -1210 314 -1530 
C 307 -1543 301 -1562 301 -1562 
C 301 -1594 326 -1600 346 -1600 
C 416 -1600 960 -1126 1274 -422 
C 1594 289 1683 981 1683 1596 
z
" id="LMRoman17-Regular-29" transform="scale(0.015625)"/>
      </defs>
      <use transform="scale(0.996264)" xlink:href="#LMMathItalic12-Regular-e"/>
      <use transform="translate(46.941386 0)scale(0.996264)" xlink:href="#LMMathItalic12-Regular-6b"/>
      <use transform="translate(101.020587 0)scale(0.996264)" xlink:href="#LMRoman17-Regular-28"/>
      <use transform="translate(136.302115 0)scale(0.996264)" xlink:href="#LMMathItalic12-Regular-16"/>
      <use transform="translate(194.993536 0)scale(0.996264)" xlink:href="#LMMathItalic12-Regular-6d"/>
      <use transform="translate(280.320761 36.153639)scale(0.697382)" xlink:href="#LMMathSymbols10-Regular-0"/>
      <use transform="translate(334.561754 36.153639)scale(0.697382)" xlink:href="#LMRoman17-Regular-31"/>
      <use transform="translate(367.043402 0)scale(0.996264)" xlink:href="#LMRoman17-Regular-29"/>
     </g>
    </g>
   </g>
   <g id="matplotlib.axis_2">
    <g id="ytick_1">
     <g id="line2d_19">
      <path clip-path="url(#pcf17db0bba)" d="M 53.488804 350.093063 
L 341.264369 350.093063 
" style="fill:none;stroke:#b0b0b0;stroke-linecap:square;stroke-opacity:0.7;stroke-width:0.8;"/>
     </g>
     <g id="line2d_20">
      <defs>
       <path d="M 0 0 
L -3.5 0 
" id="m7a57f0f7e3" style="stroke:#000000;stroke-width:0.8;"/>
      </defs>
      <g>
       <use style="stroke:#000000;stroke-width:0.8;" x="53.488804" xlink:href="#m7a57f0f7e3" y="350.093063"/>
      </g>
     </g>
     <g id="text_11">
      <!-- $\mathdefault{−40}$ -->
      <g transform="translate(27.234622 353.921365)scale(0.11 -0.11)">
       <defs>
        <path d="M 2803 1088 
L 2803 1254 
L 2150 1254 
L 2150 4146 
C 2150 4281 2144 4288 2029 4288 
L 128 1254 
L 128 1088 
L 1779 1088 
L 1779 460 
C 1779 230 1766 166 1318 166 
L 1197 166 
L 1197 0 
C 1402 12 1747 12 1965 12 
C 2182 12 2528 12 2733 0 
L 2733 166 
L 2611 166 
C 2163 166 2150 230 2150 460 
L 2150 1088 
L 2803 1088 
z
M 1798 1254 
L 256 1254 
L 1798 3723 
L 1798 1254 
z
" id="LMRoman17-Regular-34" transform="scale(0.015625)"/>
       </defs>
       <use transform="scale(0.996264)" xlink:href="#LMMathSymbols10-Regular-0"/>
       <use transform="translate(77.487468 0)scale(0.996264)" xlink:href="#LMRoman17-Regular-34"/>
       <use transform="translate(123.178416 0)scale(0.996264)" xlink:href="#LMRoman17-Regular-30"/>
      </g>
     </g>
    </g>
    <g id="ytick_2">
     <g id="line2d_21">
      <path clip-path="url(#pcf17db0bba)" d="M 53.488804 274.934604 
L 341.264369 274.934604 
" style="fill:none;stroke:#b0b0b0;stroke-linecap:square;stroke-opacity:0.7;stroke-width:0.8;"/>
     </g>
     <g id="line2d_22">
      <g>
       <use style="stroke:#000000;stroke-width:0.8;" x="53.488804" xlink:href="#m7a57f0f7e3" y="274.934604"/>
      </g>
     </g>
     <g id="text_12">
      <!-- $\mathdefault{−20}$ -->
      <g transform="translate(27.234622 278.762907)scale(0.11 -0.11)">
       <use transform="scale(0.996264)" xlink:href="#LMMathSymbols10-Regular-0"/>
       <use transform="translate(77.487468 0)scale(0.996264)" xlink:href="#LMRoman17-Regular-32"/>
       <use transform="translate(123.178416 0)scale(0.996264)" xlink:href="#LMRoman17-Regular-30"/>
      </g>
     </g>
    </g>
    <g id="ytick_3">
     <g id="line2d_23">
      <path clip-path="url(#pcf17db0bba)" d="M 53.488804 199.776146 
L 341.264369 199.776146 
" style="fill:none;stroke:#b0b0b0;stroke-linecap:square;stroke-opacity:0.7;stroke-width:0.8;"/>
     </g>
     <g id="line2d_24">
      <g>
       <use style="stroke:#000000;stroke-width:0.8;" x="53.488804" xlink:href="#m7a57f0f7e3" y="199.776146"/>
      </g>
     </g>
     <g id="text_13">
      <!-- $\mathdefault{0}$ -->
      <g transform="translate(41.123517 203.604449)scale(0.11 -0.11)">
       <use transform="scale(0.996264)" xlink:href="#LMRoman17-Regular-30"/>
      </g>
     </g>
    </g>
    <g id="ytick_4">
     <g id="line2d_25">
      <path clip-path="url(#pcf17db0bba)" d="M 53.488804 124.617688 
L 341.264369 124.617688 
" style="fill:none;stroke:#b0b0b0;stroke-linecap:square;stroke-opacity:0.7;stroke-width:0.8;"/>
     </g>
     <g id="line2d_26">
      <g>
       <use style="stroke:#000000;stroke-width:0.8;" x="53.488804" xlink:href="#m7a57f0f7e3" y="124.617688"/>
      </g>
     </g>
     <g id="text_14">
      <!-- $\mathdefault{20}$ -->
      <g transform="translate(35.758231 128.44599)scale(0.11 -0.11)">
       <use transform="scale(0.996264)" xlink:href="#LMRoman17-Regular-32"/>
       <use transform="translate(45.690948 0)scale(0.996264)" xlink:href="#LMRoman17-Regular-30"/>
      </g>
     </g>
    </g>
    <g id="ytick_5">
     <g id="line2d_27">
      <path clip-path="url(#pcf17db0bba)" d="M 53.488804 49.459229 
L 341.264369 49.459229 
" style="fill:none;stroke:#b0b0b0;stroke-linecap:square;stroke-opacity:0.7;stroke-width:0.8;"/>
     </g>
     <g id="line2d_28">
      <g>
       <use style="stroke:#000000;stroke-width:0.8;" x="53.488804" xlink:href="#m7a57f0f7e3" y="49.459229"/>
      </g>
     </g>
     <g id="text_15">
      <!-- $\mathdefault{40}$ -->
      <g transform="translate(35.758231 53.287532)scale(0.11 -0.11)">
       <use transform="scale(0.996264)" xlink:href="#LMRoman17-Regular-34"/>
       <use transform="translate(45.690948 0)scale(0.996264)" xlink:href="#LMRoman17-Regular-30"/>
      </g>
     </g>
    </g>
    <g id="text_16">
     <!-- $\omega-\omega_p$  (GHz) -->
     <g transform="translate(20.099178 232.229413)rotate(-90)scale(0.11 -0.11)">
      <defs>
       <path d="M 3642 1533 
C 3712 1807 3795 2133 3795 2394 
C 3795 2548 3763 2682 3680 2765 
C 3642 2797 3590 2816 3539 2816 
C 3469 2816 3398 2784 3341 2726 
C 3283 2669 3251 2599 3251 2535 
C 3251 2484 3270 2433 3309 2394 
C 3462 2254 3539 2050 3539 1820 
C 3539 1737 3526 1647 3507 1558 
C 3360 964 3002 352 2483 352 
C 2112 352 1907 620 1862 977 
C 1939 1156 2003 1347 2048 1533 
C 2061 1590 2074 1654 2074 1711 
C 2074 1788 2048 1845 1971 1845 
C 1856 1845 1805 1692 1773 1558 
C 1722 1367 1690 1175 1683 990 
C 1472 626 1165 352 800 352 
C 416 352 250 671 250 1073 
C 250 1220 275 1373 314 1533 
C 410 1916 627 2279 877 2624 
C 890 2650 896 2669 896 2694 
C 896 2726 883 2758 851 2777 
C 832 2784 806 2784 806 2784 
C 768 2784 730 2765 704 2733 
C 442 2362 275 1960 173 1558 
C 109 1303 77 1047 77 818 
C 77 320 250 -64 723 -64 
C 1133 -64 1459 236 1702 645 
C 1760 230 1971 -64 2406 -64 
C 3066 -64 3450 760 3642 1533 
z
" id="LMMathItalic12-Regular-21" transform="scale(0.015625)"/>
       <path d="M 3059 1813 
C 3059 2400 2726 2816 2246 2816 
C 1837 2816 1491 2419 1421 2330 
C 1370 2649 1120 2816 864 2816 
C 678 2816 531 2726 410 2483 
C 294 2253 205 1864 205 1838 
C 205 1813 230 1781 275 1781 
C 326 1781 333 1787 371 1934 
C 467 2311 589 2688 845 2688 
C 992 2688 1043 2585 1043 2394 
C 1043 2241 1024 2177 998 2062 
L 275 -794 
C 230 -981 205 -1031 -58 -1031 
C -135 -1031 -199 -1031 -199 -1152 
C -199 -1152 -192 -1216 -122 -1216 
C -39 -1216 51 -1204 134 -1204 
L 410 -1204 
L 1005 -1216 
C 1043 -1216 1120 -1216 1120 -1101 
C 1120 -1031 1075 -1031 966 -1031 
C 672 -1031 653 -987 653 -937 
C 653 -863 941 217 979 364 
C 1050 185 1222 -64 1555 -64 
C 2278 -64 3059 874 3059 1813 
z
M 2304 715 
C 2144 370 1850 64 1555 64 
C 1120 64 1050 613 1050 638 
C 1050 657 1062 708 1069 740 
L 1382 1992 
C 1427 2170 1606 2356 1709 2445 
C 1779 2509 1990 2688 2234 2688 
C 2515 2688 2643 2407 2643 2075 
C 2643 1768 2464 1047 2304 715 
z
" id="LMMathItalic12-Regular-70" transform="scale(0.015625)"/>
       <path d="M 4390 1536 
L 4390 1702 
C 4237 1689 3891 1689 3718 1689 
L 2797 1702 
L 2797 1536 
L 2989 1536 
C 3539 1534 3552 1463 3552 1231 
L 3552 805 
C 3552 96 2720 38 2522 38 
C 1862 38 781 496 781 2179 
C 781 3862 1843 4313 2464 4313 
C 3187 4313 3712 3681 3834 2785 
C 3846 2713 3846 2700 3904 2700 
C 3974 2695 3974 2707 3974 2824 
L 3974 4351 
C 3974 4467 3968 4473 3930 4473 
C 3904 4473 3898 4467 3853 4390 
L 3571 3849 
C 3258 4249 2874 4480 2381 4480 
C 1286 4480 294 3507 294 2179 
C 294 857 1267 -128 2394 -128 
C 2912 -128 3418 57 3616 425 
C 3725 160 3904 -20 3936 -20 
C 3968 -20 3974 -13 3974 102 
L 3974 1257 
C 3974 1503 3994 1536 4390 1536 
z
" id="LMRoman17-Regular-47" transform="scale(0.015625)"/>
       <path d="M 4102 0 
L 4102 166 
C 3661 166 3590 166 3590 452 
L 3590 3898 
C 3590 4185 3661 4185 4102 4185 
L 4102 4352 
C 3917 4339 3578 4339 3379 4339 
C 3181 4339 2842 4339 2656 4352 
L 2656 4185 
C 3098 4185 3168 4185 3168 3898 
L 3168 2342 
L 1261 2342 
L 1261 3898 
C 1261 4185 1331 4185 1773 4185 
L 1773 4352 
C 1587 4339 1248 4339 1050 4339 
C 851 4339 512 4339 326 4352 
L 326 4185 
C 768 4185 838 4185 838 3898 
L 838 452 
C 838 166 768 166 326 166 
L 326 0 
C 512 12 851 12 1050 12 
C 1248 12 1587 12 1773 0 
L 1773 166 
C 1331 166 1261 166 1261 452 
L 1261 2176 
L 3168 2176 
L 3168 452 
C 3168 166 3098 166 2656 166 
L 2656 0 
C 2842 12 3181 12 3379 12 
C 3578 12 3917 12 4102 0 
z
" id="LMRoman17-Regular-48" transform="scale(0.015625)"/>
       <path d="M 2381 1152 
L 2266 1152 
C 2214 441 2131 115 1350 115 
L 531 115 
L 2310 2604 
C 2362 2668 2362 2694 2362 2694 
C 2362 2752 2336 2752 2221 2752 
L 275 2752 
L 211 1760 
L 326 1760 
C 371 2380 442 2649 1178 2649 
L 1958 2649 
L 128 96 
C 128 6 134 0 269 0 
L 2291 0 
L 2381 1152 
z
" id="LMRoman17-Regular-7a" transform="scale(0.015625)"/>
      </defs>
      <use transform="scale(0.996264)" xlink:href="#LMMathItalic12-Regular-21"/>
      <use transform="translate(86.457553 0)scale(0.996264)" xlink:href="#LMMathSymbols10-Regular-0"/>
      <use transform="translate(186.084228 0)scale(0.996264)" xlink:href="#LMMathItalic12-Regular-21"/>
      <use transform="translate(246.827981 -14.943915)scale(0.697382)" xlink:href="#LMMathItalic12-Regular-70"/>
      <use transform="translate(311.673768 0)scale(0.996264)" xlink:href="#LMRoman17-Regular-28"/>
      <use transform="translate(346.955296 0)scale(0.996264)" xlink:href="#LMRoman17-Regular-47"/>
      <use transform="translate(419.311311 0)scale(0.996264)" xlink:href="#LMRoman17-Regular-48"/>
      <use transform="translate(488.380989 0)scale(0.996264)" xlink:href="#LMRoman17-Regular-7a"/>
      <use transform="translate(528.865798 0)scale(0.996264)" xlink:href="#LMRoman17-Regular-29"/>
     </g>
    </g>
   </g>
   <g id="line2d_29">
    <path clip-path="url(#pcf17db0bba)" d="M 90.802044 -1 
L 94.270603 32.344588 
L 97.725061 63.510493 
L 101.083562 91.860053 
L 104.346106 117.562373 
L 107.512693 140.781613 
L 110.583323 161.676969 
L 113.557995 180.402629 
L 116.43671 197.107748 
L 116.916496 199.756827 
M 186.005661 199.293488 
L 188.308633 186.020477 
L 190.611606 171.431915 
L 192.914578 155.368222 
L 195.21755 137.680817 
L 197.520522 118.263527 
L 199.919451 96.160217 
L 202.510295 70.200814 
L 205.38901 39.017319 
L 208.555597 2.221495 
L 208.823566 -1 
L 208.823566 -1 
" style="fill:none;stroke:#1f77b4;stroke-linecap:square;stroke-width:1.5;"/>
   </g>
   <g id="line2d_30">
    <path clip-path="url(#pcf17db0bba)" d="M 117.012453 200.282017 
L 119.699254 214.36232 
L 122.290098 226.799681 
L 124.784984 237.722791 
L 127.183914 247.255161 
L 129.486886 255.5151 
L 131.693901 262.615688 
L 133.804959 268.664771 
L 135.820059 273.764947 
L 137.739203 278.013577 
L 139.562389 281.502792 
L 141.289618 284.319519 
L 142.92089 286.545517 
L 144.456205 288.257418 
L 145.895563 289.526787 
L 147.238963 290.420184 
L 148.486406 290.999237 
L 149.733849 291.338314 
L 150.981293 291.438684 
L 152.228736 291.301646 
L 153.476179 290.928513 
L 154.723623 290.320613 
L 156.067023 289.404926 
L 157.410423 288.220153 
L 158.849781 286.653983 
L 160.385096 284.647122 
L 162.016368 282.136848 
L 163.743597 279.056946 
L 165.566783 275.337466 
L 167.485927 270.904241 
L 169.501027 265.677975 
L 171.612085 259.572672 
L 173.8191 252.493003 
L 176.122072 244.33003 
L 178.425044 235.347105 
L 180.823974 225.070731 
L 183.222903 213.784847 
L 185.621833 201.388417 
L 185.909704 199.820233 
L 185.909704 199.820233 
" style="fill:none;stroke:#ff7f0e;stroke-linecap:square;stroke-width:1.5;"/>
   </g>
   <g id="line2d_31">
    <path clip-path="url(#pcf17db0bba)" d="M 183.297341 433 
L 186.965233 388.191606 
L 190.227777 350.937836 
L 193.106492 320.465865 
L 195.793293 294.322276 
L 198.288179 272.170287 
L 200.687109 252.816795 
L 203.086038 235.290231 
L 205.484968 219.441426 
L 207.883897 205.091819 
L 208.747511 200.258803 
M 277.836677 199.795465 
L 280.523478 215.127361 
L 283.306236 232.285286 
L 286.184951 251.408196 
L 289.25558 273.349951 
L 292.422167 297.651326 
L 295.684711 324.471439 
L 299.043212 353.974366 
L 302.49767 386.329118 
L 306.048086 421.709614 
L 307.137607 433 
L 307.137607 433 
" style="fill:none;stroke:#1f77b4;stroke-dasharray:5.55,2.4;stroke-dashoffset:0;stroke-width:1.5;"/>
   </g>
   <g id="line2d_32">
    <path clip-path="url(#pcf17db0bba)" d="M 208.843469 199.732059 
L 211.242398 187.194058 
L 213.737284 175.346138 
L 216.232171 164.59785 
L 218.6311 155.222262 
L 221.03003 146.736497 
L 223.333002 139.397807 
L 225.540017 133.091824 
L 227.651075 127.718949 
L 229.666175 123.189478 
L 231.585319 119.420632 
L 233.408505 116.334788 
L 235.039777 113.984592 
L 236.575092 112.129343 
L 238.110407 110.622272 
L 239.549764 109.527716 
L 240.893165 108.785881 
L 242.140608 108.340371 
L 243.388051 108.130548 
L 244.635494 108.15773 
L 245.882938 108.423222 
L 247.130381 108.928303 
L 248.377824 109.674224 
L 249.721225 110.748264 
L 251.064625 112.104516 
L 252.503983 113.872431 
L 254.039298 116.119003 
L 255.670569 118.916213 
L 257.397799 122.341093 
L 259.220985 126.475775 
L 261.140128 131.407527 
L 263.155229 137.228789 
L 265.266287 144.037192 
L 267.473302 151.935567 
L 269.776274 161.031951 
L 272.175203 171.43958 
L 274.67009 183.276878 
L 277.260934 196.667439 
L 277.740719 199.270275 
L 277.740719 199.270275 
" style="fill:none;stroke:#ff7f0e;stroke-dasharray:5.55,2.4;stroke-dashoffset:0;stroke-width:1.5;"/>
   </g>
   <g id="patch_3">
    <path d="M 53.488804 387.672292 
L 53.488804 11.88 
" style="fill:none;stroke:#000000;stroke-linecap:square;stroke-linejoin:miter;stroke-width:0.8;"/>
   </g>
   <g id="patch_4">
    <path d="M 341.264369 387.672292 
L 341.264369 11.88 
" style="fill:none;stroke:#000000;stroke-linecap:square;stroke-linejoin:miter;stroke-width:0.8;"/>
   </g>
   <g id="patch_5">
    <path d="M 53.488804 387.672292 
L 341.264369 387.672292 
" style="fill:none;stroke:#000000;stroke-linecap:square;stroke-linejoin:miter;stroke-width:0.8;"/>
   </g>
   <g id="patch_6">
    <path d="M 53.488804 11.88 
L 341.264369 11.88 
" style="fill:none;stroke:#000000;stroke-linecap:square;stroke-linejoin:miter;stroke-width:0.8;"/>
   </g>
   <g id="text_17">
    <g id="patch_7">
     <path d="M 125.432695 359.436071 
L 195.088949 359.436071 
Q 201.088949 359.436071 201.088949 353.436071 
L 201.088949 340.618384 
Q 201.088949 334.618384 195.088949 334.618384 
L 125.432695 334.618384 
Q 119.432695 334.618384 119.432695 340.618384 
L 119.432695 353.436071 
Q 119.432695 359.436071 125.432695 359.436071 
z
" style="fill:#ffffff;opacity:0.5;stroke:#000000;stroke-linejoin:miter;"/>
    </g>
    <!-- $k_p=0.7 \mu m^{-1}$ -->
    <g transform="translate(125.432695 350.093063)scale(0.12 -0.12)">
     <defs>
      <path d="M 4307 2156 
C 4307 2272 4198 2272 4090 2272 
L 512 2272 
C 403 2272 294 2272 294 2156 
C 294 2048 390 2048 486 2048 
L 4115 2048 
C 4211 2048 4307 2048 4307 2156 
z
M 4307 1043 
C 4307 1152 4211 1152 4115 1152 
L 486 1152 
C 390 1152 294 1152 294 1043 
C 294 927 403 927 512 927 
L 4090 927 
C 4198 927 4307 927 4307 1043 
z
" id="LMRoman17-Regular-3d" transform="scale(0.015625)"/>
      <path d="M 2886 4006 
L 2886 4147 
L 1382 4147 
C 634 4147 621 4230 595 4352 
L 480 4352 
L 294 3148 
L 410 3148 
C 429 3271 474 3601 550 3724 
C 589 3776 1062 3776 1171 3776 
L 2579 3776 
L 1869 2707 
C 1395 1989 1069 1018 1069 169 
C 1069 92 1069 -128 1299 -128 
C 1530 -128 1530 92 1530 176 
L 1530 474 
C 1530 1535 1709 2235 2003 2681 
L 2886 4006 
z
" id="LMRoman17-Regular-37" transform="scale(0.015625)"/>
     </defs>
     <use transform="scale(0.996264)" xlink:href="#LMMathItalic12-Regular-6b"/>
     <use transform="translate(50.735189 -14.943915)scale(0.697382)" xlink:href="#LMMathItalic12-Regular-70"/>
     <use transform="translate(113.178836 0)scale(0.996264)" xlink:href="#LMRoman17-Regular-3d"/>
     <use transform="translate(212.568864 0)scale(0.996264)" xlink:href="#LMRoman17-Regular-30"/>
     <use transform="translate(258.259812 0)scale(0.996264)" xlink:href="#LMMathItalic12-Regular-3a"/>
     <use transform="translate(285.35699 0)scale(0.996264)" xlink:href="#LMRoman17-Regular-37"/>
     <use transform="translate(331.047938 0)scale(0.996264)" xlink:href="#LMMathItalic12-Regular-16"/>
     <use transform="translate(389.739359 0)scale(0.996264)" xlink:href="#LMMathItalic12-Regular-6d"/>
     <use transform="translate(475.066584 36.153639)scale(0.697382)" xlink:href="#LMMathSymbols10-Regular-0"/>
     <use transform="translate(529.307577 36.153639)scale(0.697382)" xlink:href="#LMRoman17-Regular-31"/>
    </g>
   </g>
   <g id="legend_1">
    <g id="patch_8">
     <path d="M 228.023031 51.341759 
L 333.564369 51.341759 
Q 335.764369 51.341759 335.764369 49.141759 
L 335.764369 19.58 
Q 335.764369 17.38 333.564369 17.38 
L 228.023031 17.38 
Q 225.823031 17.38 225.823031 19.58 
L 225.823031 49.141759 
Q 225.823031 51.341759 228.023031 51.341759 
z
" style="fill:#ffffff;opacity:0.8;stroke:#cccccc;stroke-linejoin:miter;"/>
    </g>
    <g id="line2d_33">
     <path d="M 230.223031 25.63 
L 252.223031 25.63 
" style="fill:none;stroke:#1f77b4;stroke-linecap:square;stroke-width:1.5;"/>
    </g>
    <g id="line2d_34"/>
    <g id="text_18">
     <!-- Normal branch -->
     <g transform="translate(261.023031 29.48)scale(0.11 -0.11)">
      <defs>
       <path d="M 4102 4185 
L 4102 4352 
C 3955 4339 3686 4339 3526 4339 
C 3366 4339 3098 4339 2950 4352 
L 2950 4185 
C 3462 4185 3462 3885 3462 3726 
L 3462 777 
L 1312 4275 
C 1267 4345 1261 4352 1139 4352 
L 326 4352 
L 326 4185 
L 448 4185 
C 704 4185 819 4153 838 4147 
L 838 624 
C 838 465 838 166 326 166 
L 326 0 
C 474 12 742 12 902 12 
C 1062 12 1331 12 1478 0 
L 1478 166 
C 966 166 966 465 966 624 
L 966 4057 
C 1011 4019 1011 4007 1056 3943 
L 3430 76 
C 3475 0 3494 0 3526 0 
C 3590 0 3590 19 3590 140 
L 3590 3726 
C 3590 3885 3590 4185 4102 4185 
z
" id="LMRoman17-Regular-4e" transform="scale(0.015625)"/>
       <path d="M 2758 1356 
C 2758 2176 2163 2816 1466 2816 
C 768 2816 173 2176 173 1356 
C 173 550 768 -64 1466 -64 
C 2163 -64 2758 550 2758 1356 
z
M 2349 1408 
C 2349 1158 2336 774 2163 467 
C 1984 172 1709 51 1466 51 
C 1165 51 909 230 762 480 
C 602 768 582 1126 582 1408 
C 582 1676 595 2009 762 2297 
C 890 2508 1139 2713 1466 2713 
C 1754 2713 1997 2553 2150 2329 
C 2349 2028 2349 1606 2349 1408 
z
" id="LMRoman17-Regular-6f" transform="scale(0.015625)"/>
       <path d="M 2131 2483 
C 2131 2687 1926 2816 1709 2816 
C 1222 2816 1011 2342 947 2118 
L 941 2118 
L 941 2816 
L 198 2752 
L 198 2585 
C 576 2585 634 2546 634 2237 
L 634 443 
C 634 198 608 166 198 166 
L 198 0 
C 352 12 646 12 813 12 
C 998 12 1325 12 1498 0 
L 1498 166 
C 1037 159 960 159 960 447 
L 960 1503 
C 960 2118 1222 2713 1702 2713 
C 1747 2713 1792 2706 1837 2684 
C 1837 2684 1696 2633 1696 2457 
C 1696 2303 1818 2239 1914 2239 
C 1990 2239 2131 2284 2131 2463 
L 2131 2483 
z
" id="LMRoman17-Regular-72" transform="scale(0.015625)"/>
       <path d="M 4762 0 
L 4762 166 
C 4352 166 4326 192 4326 443 
L 4326 1954 
C 4326 2276 4269 2816 3507 2816 
C 3072 2816 2771 2520 2656 2173 
L 2650 2173 
C 2573 2700 2195 2816 1837 2816 
C 1331 2816 1069 2424 973 2166 
L 966 2166 
L 966 2816 
L 211 2752 
L 211 2585 
C 589 2585 646 2546 646 2237 
L 646 443 
C 646 198 621 166 211 166 
L 211 0 
C 365 12 646 12 813 12 
C 979 12 1267 12 1421 0 
L 1421 166 
C 1011 166 986 192 986 443 
L 986 1682 
C 986 2269 1344 2713 1792 2713 
C 2266 2713 2317 2289 2317 1980 
L 2317 443 
C 2317 198 2291 166 1882 166 
L 1882 0 
C 2035 12 2317 12 2483 12 
C 2650 12 2938 12 3091 0 
L 3091 166 
C 2682 166 2656 192 2656 443 
L 2656 1678 
C 2656 2269 3014 2713 3462 2713 
C 3936 2713 3987 2289 3987 1980 
L 3987 443 
C 3987 198 3962 166 3552 166 
L 3552 0 
C 3706 12 3987 12 4154 12 
C 4320 12 4608 12 4762 0 
z
" id="LMRoman17-Regular-6d" transform="scale(0.015625)"/>
       <path d="M 2874 569 
L 2874 928 
L 2758 928 
L 2758 563 
C 2758 172 2586 121 2502 121 
C 2240 121 2240 454 2240 736 
L 2240 1657 
C 2240 2080 2240 2304 1971 2553 
C 1734 2764 1459 2828 1242 2828 
C 736 2828 371 2432 371 2009 
C 371 1772 563 1760 602 1760 
C 685 1760 832 1811 832 1990 
C 832 2150 710 2220 602 2220 
C 576 2220 544 2214 525 2208 
C 659 2611 1005 2726 1229 2726 
C 1549 2726 1901 2444 1901 1907 
L 1901 1625 
C 1523 1612 1069 1561 710 1369 
C 307 1145 192 825 192 582 
C 192 89 768 -52 1107 -52 
C 1459 -52 1786 147 1926 512 
C 1939 230 2118 -26 2400 -26 
C 2534 -26 2874 64 2874 569 
z
M 1901 889 
C 1901 332 1504 51 1152 51 
C 832 51 582 288 582 582 
C 582 774 666 1113 1037 1318 
C 1344 1491 1696 1516 1901 1529 
L 1901 889 
z
" id="LMRoman17-Regular-61" transform="scale(0.015625)"/>
       <path d="M 1414 0 
L 1414 166 
C 1005 166 979 191 979 439 
L 979 4416 
L 218 4352 
L 218 4185 
C 595 4185 653 4147 653 3841 
L 653 440 
C 653 198 627 166 218 166 
L 218 0 
C 371 12 653 12 813 12 
C 979 12 1261 12 1414 0 
z
" id="LMRoman17-Regular-6c" transform="scale(0.015625)"/>
       <path d="M 3053 1382 
C 3053 2209 2477 2816 1830 2816 
C 1434 2816 1152 2603 960 2351 
L 960 4416 
L 198 4345 
L 198 4179 
C 576 4179 634 4141 634 3843 
L 634 -13 
L 749 -13 
L 934 445 
C 1120 141 1395 -64 1766 -64 
C 2406 -64 3053 503 3053 1382 
z
M 2643 1388 
C 2643 109 1888 38 1734 38 
C 1536 63 1248 140 1043 511 
C 973 633 973 646 973 761 
L 973 2028 
C 973 2143 973 2163 1062 2297 
C 1312 2681 1670 2713 1792 2713 
C 1984 2713 2643 2611 2643 1401 
L 2643 1388 
z
" id="LMRoman17-Regular-62" transform="scale(0.015625)"/>
       <path d="M 3091 0 
L 3091 166 
C 2682 166 2656 192 2656 443 
L 2656 1954 
C 2656 2282 2592 2816 1837 2816 
C 1331 2816 1069 2424 973 2166 
L 966 2166 
L 966 2816 
L 211 2752 
L 211 2585 
C 589 2585 646 2546 646 2237 
L 646 443 
C 646 198 621 166 211 166 
L 211 0 
C 365 12 646 12 813 12 
C 979 12 1267 12 1421 0 
L 1421 166 
C 1011 166 986 192 986 443 
L 986 1682 
C 986 2269 1344 2713 1792 2713 
C 2266 2713 2317 2289 2317 1980 
L 2317 443 
C 2317 198 2291 166 1882 166 
L 1882 0 
C 2035 12 2317 12 2483 12 
C 2650 12 2938 12 3091 0 
z
" id="LMRoman17-Regular-6e" transform="scale(0.015625)"/>
       <path d="M 2458 742 
C 2458 768 2451 787 2406 787 
C 2362 787 2355 780 2330 697 
C 2163 179 1798 51 1523 51 
C 1114 51 621 428 621 1376 
C 621 2358 1094 2700 1472 2700 
C 1722 2700 2093 2582 2234 2240 
C 2112 2240 1933 2240 1933 2015 
C 1933 1836 2080 1785 2163 1785 
C 2208 1772 2394 1792 2394 2016 
C 2394 2470 1958 2816 1466 2816 
C 787 2816 211 2188 211 1369 
C 211 518 813 -64 1466 -64 
C 2259 -64 2458 672 2458 742 
z
" id="LMRoman17-Regular-63" transform="scale(0.015625)"/>
       <path d="M 3091 0 
L 3091 166 
C 2682 166 2656 192 2656 443 
L 2656 1954 
C 2656 2282 2592 2816 1837 2816 
C 1312 2816 1056 2392 979 2179 
L 973 2179 
L 973 4416 
L 211 4352 
L 211 4185 
C 589 4185 646 4148 646 3847 
L 646 443 
C 646 198 621 166 211 166 
L 211 0 
C 365 12 646 12 813 12 
C 979 12 1267 12 1421 0 
L 1421 166 
C 1011 166 986 192 986 443 
L 986 1678 
C 986 2269 1344 2713 1792 2713 
C 2266 2713 2317 2289 2317 1980 
L 2317 443 
C 2317 198 2291 166 1882 166 
L 1882 0 
C 2035 12 2317 12 2483 12 
C 2650 12 2938 12 3091 0 
z
" id="LMRoman17-Regular-68" transform="scale(0.015625)"/>
      </defs>
      <use transform="scale(0.996264)" xlink:href="#LMRoman17-Regular-4e"/>
      <use transform="translate(69.069678 0)scale(0.996264)" xlink:href="#LMRoman17-Regular-6f"/>
      <use transform="translate(114.760627 0)scale(0.996264)" xlink:href="#LMRoman17-Regular-72"/>
      <use transform="translate(150.042155 0)scale(0.996264)" xlink:href="#LMRoman17-Regular-6d"/>
      <use transform="translate(226.964314 0)scale(0.996264)" xlink:href="#LMRoman17-Regular-61"/>
      <use transform="translate(272.655262 0)scale(0.996264)" xlink:href="#LMRoman17-Regular-6c"/>
      <use transform="translate(327.603427 0)scale(0.996264)" xlink:href="#LMRoman17-Regular-62"/>
      <use transform="translate(378.500514 0)scale(0.996264)" xlink:href="#LMRoman17-Regular-72"/>
      <use transform="translate(413.782042 0)scale(0.996264)" xlink:href="#LMRoman17-Regular-61"/>
      <use transform="translate(459.472991 0)scale(0.996264)" xlink:href="#LMRoman17-Regular-6e"/>
      <use transform="translate(510.370078 0)scale(0.996264)" xlink:href="#LMRoman17-Regular-63"/>
      <use transform="translate(548.252434 0)scale(0.996264)" xlink:href="#LMRoman17-Regular-68"/>
     </g>
    </g>
    <g id="line2d_35">
     <path d="M 230.223031 40.960879 
L 252.223031 40.960879 
" style="fill:none;stroke:#1f77b4;stroke-dasharray:5.55,2.4;stroke-dashoffset:0;stroke-width:1.5;"/>
    </g>
    <g id="line2d_36"/>
    <g id="text_19">
     <!-- Ghost branch -->
     <g transform="translate(261.023031 44.810879)scale(0.11 -0.11)">
      <defs>
       <path d="M 2131 793 
C 2131 1119 1958 1292 1875 1369 
C 1683 1567 1459 1612 1190 1663 
C 838 1740 390 1830 390 2216 
C 390 2380 480 2726 1126 2726 
C 1811 2726 1850 2097 1862 1894 
C 1869 1862 1901 1855 1920 1855 
C 1978 1855 1978 1875 1978 1984 
L 1978 2688 
C 1978 2809 1971 2816 1933 2816 
C 1907 2816 1901 2809 1824 2713 
C 1805 2687 1747 2623 1728 2598 
C 1523 2809 1235 2816 1126 2816 
C 416 2816 160 2450 160 2086 
C 160 1507 813 1371 998 1333 
C 1402 1249 1542 1223 1677 1107 
C 1760 1030 1901 888 1901 656 
C 1901 386 1747 38 1158 38 
C 602 38 403 463 288 1030 
C 269 1126 269 1132 218 1132 
C 166 1132 160 1126 160 998 
L 160 76 
C 160 -39 166 -45 205 -45 
C 237 -45 243 -39 275 12 
L 448 275 
C 576 102 800 -64 1158 -64 
C 1792 -64 2131 281 2131 780 
L 2131 793 
z
" id="LMRoman17-Regular-73" transform="scale(0.015625)"/>
       <path d="M 1965 784 
L 1965 1151 
L 1850 1151 
L 1850 790 
C 1850 347 1677 51 1408 51 
C 1222 51 966 179 966 765 
L 966 2585 
L 1862 2585 
L 1862 2752 
L 966 2752 
L 966 3968 
L 851 3968 
C 838 3291 614 2700 70 2687 
L 70 2585 
L 627 2585 
L 627 778 
C 627 655 627 -64 1370 -64 
C 1747 -64 1965 308 1965 784 
z
" id="LMRoman17-Regular-74" transform="scale(0.015625)"/>
      </defs>
      <use transform="scale(0.996264)" xlink:href="#LMRoman17-Regular-47"/>
      <use transform="translate(72.356015 0)scale(0.996264)" xlink:href="#LMRoman17-Regular-68"/>
      <use transform="translate(123.253102 0)scale(0.996264)" xlink:href="#LMRoman17-Regular-6f"/>
      <use transform="translate(168.944051 0)scale(0.996264)" xlink:href="#LMRoman17-Regular-73"/>
      <use transform="translate(204.747289 0)scale(0.996264)" xlink:href="#LMRoman17-Regular-74"/>
      <use transform="translate(270.104965 0)scale(0.996264)" xlink:href="#LMRoman17-Regular-62"/>
      <use transform="translate(321.002053 0)scale(0.996264)" xlink:href="#LMRoman17-Regular-72"/>
      <use transform="translate(356.283581 0)scale(0.996264)" xlink:href="#LMRoman17-Regular-61"/>
      <use transform="translate(401.974529 0)scale(0.996264)" xlink:href="#LMRoman17-Regular-6e"/>
      <use transform="translate(452.871617 0)scale(0.996264)" xlink:href="#LMRoman17-Regular-63"/>
      <use transform="translate(490.753972 0)scale(0.996264)" xlink:href="#LMRoman17-Regular-68"/>
     </g>
    </g>
   </g>
  </g>
 </g>
 <defs>
  <clipPath id="pcf17db0bba">
   <rect height="375.792292" width="287.775565" x="53.488804" y="11.88"/>
  </clipPath>
 </defs>
</svg>
